<?xml version="1.0" standalone="no"?>
<!DOCTYPE svg PUBLIC "-//W3C//DTD SVG 20010904//EN"
 "http://www.w3.org/TR/2001/REC-SVG-20010904/DTD/svg10.dtd">
<svg version="1.0" xmlns="http://www.w3.org/2000/svg"
 width="720.000000pt" height="720.000000pt" viewBox="0 0 720.000000 720.000000"
 preserveAspectRatio="xMidYMid meet">

<g transform="translate(0.000000,720.000000) scale(0.100000,-0.100000)"
fill="#000000" stroke="none">
<path d="M3410 5820 c-586 -31 -1149 -289 -1556 -713 -343 -357 -558 -797
-636 -1297 -8 -53 -13 -178 -13 -335 0 -266 9 -349 60 -555 196 -783 767
-1403 1530 -1659 251 -84 477 -121 745 -121 176 0 299 12 465 45 879 176 1582
845 1806 1717 49 194 61 293 66 564 6 289 5 293 -60 362 -39 40 -119 66 -174
56 -62 -10 -120 -50 -150 -102 -28 -47 -28 -47 -35 -292 -7 -286 -23 -390 -89
-598 -253 -791 -993 -1331 -1826 -1332 -836 -1 -1578 540 -1833 1335 -62 196
-90 375 -90 585 0 431 134 826 398 1175 61 80 220 243 307 315 233 191 528
330 837 396 168 35 468 45 636 20 156 -23 315 -65 454 -120 130 -51 179 -56
243 -27 134 60 165 229 62 335 -33 34 -64 52 -147 84 -220 85 -476 145 -670
157 -52 3 -117 7 -145 9 -27 1 -111 -1 -185 -4z"/>
<path d="M4765 3993 c-661 -664 -1106 -1103 -1130 -1116 -54 -28 -136 -28
-190 0 -23 12 -190 172 -387 370 -190 191 -343 341 -338 333 5 -8 168 -173
362 -367 368 -366 376 -373 458 -373 87 0 42 -41 1203 1118 918 917 1146 1148
1115 1130 -2 0 -493 -494 -1093 -1095z"/>
</g>
</svg>
